<?xml version="1.0" encoding="UTF-8"?>
<svg xmlns="http://www.w3.org/2000/svg" viewBox="0 0 1024 1024">
  <defs>
    <style>
      .cls-1 {
        fill: #98d647;
      }

      .cls-2 {
        fill: #e75b4e;
      }
    </style>
  </defs>
  <g id="_图层_2" data-name="图层 2">
    <path class="cls-2" d="M388,242c-276.32,61.66-291.37,517,127,534,312.1,12.68,380.56-274,288-378-44.94-50.49-126.27-4.66-95,45,29.33,46.59,22.62,120.51-23,171-70.39,77.9-172.17,57.51-192,57-63.33-1.64-164.91-53.13-177-160-4.44-102.24,77.99-156.07,139-173,65.76-18.25,144.32,9.94,169,15,66.89,13.71,107.22-67.13,32-98,2-45,3-56-70-18-33-9-66-10-110-3-84-76-94-57-88,8Z"/>
  </g>
  <g id="_图层_3" data-name="图层 3">
    <path class="cls-1" d="M602.41,154.45c-.49-2.66-56.75-2.64-94.4,29.97-33.27,28.82-48.64,86.04-43.96,86.34-1.94,4.92,63.26,6.07,104.57-34.99,29.64-29.46,36.97-80.55,33.8-81.32Z"/>
  </g>
</svg>
